<svg id="Layer_1" data-name="Layer 1" xmlns="http://www.w3.org/2000/svg" xmlns:xlink="http://www.w3.org/1999/xlink" viewBox="0 0 298.75 114.83"><defs><style>.cls-1{fill:url(#New_Gradient_Swatch_2);}</style><linearGradient id="New_Gradient_Swatch_2" x1="85.48" y1="87.93" x2="384.23" y2="87.93" gradientUnits="userSpaceOnUse"><stop offset="0" stop-color="#b87cb4"/><stop offset="1" stop-color="#4abfc7"/></linearGradient></defs><path class="cls-1" d="M123.27,60.19a68.27,68.27,0,0,0-17,1.83,85.93,85.93,0,0,0-13.77,4.9l5,14.84a80.4,80.4,0,0,1,10.86-3.68,49.72,49.72,0,0,1,12.24-1.37q9.63,0,14.76,4.43T140.55,94v2a76.79,76.79,0,0,0-9.86-2.45,72.45,72.45,0,0,0-12.47-.91,50.84,50.84,0,0,0-13.08,1.6A30.52,30.52,0,0,0,94.74,99a22.22,22.22,0,0,0-6.81,8.11,25.37,25.37,0,0,0-2.45,11.47v.31a23,23,0,0,0,8.65,18.58,27.06,27.06,0,0,0,9.17,4.74,37.1,37.1,0,0,0,10.94,1.61,33.29,33.29,0,0,0,15.6-3.36,34.51,34.51,0,0,0,10.56-8.27v10h18.36V94.3q0-16.22-8.72-25.16T123.27,60.19ZM140.86,113a15.05,15.05,0,0,1-1.61,7,15.53,15.53,0,0,1-4.51,5.35,22,22,0,0,1-6.81,3.45,28.42,28.42,0,0,1-8.49,1.22,19.32,19.32,0,0,1-11.09-3.06,10.05,10.05,0,0,1-4.51-8.87v-.31a11,11,0,0,1,4.89-9.63q4.9-3.37,13.62-3.37a54.41,54.41,0,0,1,10.17.92,48.12,48.12,0,0,1,8.34,2.29Z" transform="translate(-85.48 -30.51)"/><path class="cls-1" d="M123.27,60.19a68.27,68.27,0,0,0-17,1.83,85.93,85.93,0,0,0-13.77,4.9l5,14.84a80.4,80.4,0,0,1,10.86-3.68,49.72,49.72,0,0,1,12.24-1.37q9.63,0,14.76,4.43T140.55,94v2a76.79,76.79,0,0,0-9.86-2.45,72.45,72.45,0,0,0-12.47-.91,50.84,50.84,0,0,0-13.08,1.6A30.52,30.52,0,0,0,94.74,99a22.22,22.22,0,0,0-6.81,8.11,25.37,25.37,0,0,0-2.45,11.47v.31a23,23,0,0,0,8.65,18.58,27.06,27.06,0,0,0,9.17,4.74,37.1,37.1,0,0,0,10.94,1.61,33.29,33.29,0,0,0,15.6-3.36,34.51,34.51,0,0,0,10.56-8.27v10h18.36V94.3q0-16.22-8.72-25.16T123.27,60.19ZM140.86,113a15.05,15.05,0,0,1-1.61,7,15.53,15.53,0,0,1-4.51,5.35,22,22,0,0,1-6.81,3.45,28.42,28.42,0,0,1-8.49,1.22,19.32,19.32,0,0,1-11.09-3.06,10.05,10.05,0,0,1-4.51-8.87v-.31a11,11,0,0,1,4.89-9.63q4.9-3.37,13.62-3.37a54.41,54.41,0,0,1,10.17.92,48.12,48.12,0,0,1,8.34,2.29Z" transform="translate(-85.48 -30.51)"/><path class="cls-1" d="M123.27,60.19a68.27,68.27,0,0,0-17,1.83,85.93,85.93,0,0,0-13.77,4.9l5,14.84a80.4,80.4,0,0,1,10.86-3.68,49.72,49.72,0,0,1,12.24-1.37q9.63,0,14.76,4.43T140.55,94v2a76.79,76.79,0,0,0-9.86-2.45,72.45,72.45,0,0,0-12.47-.91,50.84,50.84,0,0,0-13.08,1.6A30.52,30.52,0,0,0,94.74,99a22.22,22.22,0,0,0-6.81,8.11,25.37,25.37,0,0,0-2.45,11.47v.31a23,23,0,0,0,8.65,18.58,27.06,27.06,0,0,0,9.17,4.74,37.1,37.1,0,0,0,10.94,1.61,33.29,33.29,0,0,0,15.6-3.36,34.51,34.51,0,0,0,10.56-8.27v10h18.36V94.3q0-16.22-8.72-25.16T123.27,60.19ZM140.86,113a15.05,15.05,0,0,1-1.61,7,15.53,15.53,0,0,1-4.51,5.35,22,22,0,0,1-6.81,3.45,28.42,28.42,0,0,1-8.49,1.22,19.32,19.32,0,0,1-11.09-3.06,10.05,10.05,0,0,1-4.51-8.87v-.31a11,11,0,0,1,4.89-9.63q4.9-3.37,13.62-3.37a54.41,54.41,0,0,1,10.17.92,48.12,48.12,0,0,1,8.34,2.29Z" transform="translate(-85.48 -30.51)"/><polygon class="cls-1" points="93.31 46.04 138.28 46.04 91.63 98.97 91.63 111.67 161.84 111.67 161.84 96.52 115.18 96.52 161.84 43.6 161.84 30.9 93.31 30.9 93.31 46.04"/><polygon class="cls-1" points="93.31 46.04 138.28 46.04 91.63 98.97 91.63 111.67 161.84 111.67 161.84 96.52 115.18 96.52 161.84 43.6 161.84 30.9 93.31 30.9 93.31 46.04"/><polygon class="cls-1" points="93.31 46.04 138.28 46.04 91.63 98.97 91.63 111.67 161.84 111.67 161.84 96.52 115.18 96.52 161.84 43.6 161.84 30.9 93.31 30.9 93.31 46.04"/><path class="cls-1" d="M334.55,73l7.28-8.74L330,54.37l-7.93,9.54c-.66-.31-1.32-.61-2-.89a44.09,44.09,0,0,0-17.21-3.29,43.41,43.41,0,0,0-17.21,3.36A42.93,42.93,0,0,0,272,72.19a42.19,42.19,0,0,0-9,13.47,41.76,41.76,0,0,0,5.67,42.42l-6.17,7.42,11.83,9.84,6-7.18a43,43,0,0,0,5.18,2.56,46,46,0,0,0,34.34-.07,42,42,0,0,0,22.72-22.49,41,41,0,0,0,3.28-16.37A41.67,41.67,0,0,0,334.55,73Zm-53.77,40.57c-.25-.54-.5-1.08-.72-1.64a27.61,27.61,0,0,1-1.84-10.1,29.35,29.35,0,0,1,1.68-10,24.34,24.34,0,0,1,4.9-8.18,23.58,23.58,0,0,1,17.74-7.65,24.51,24.51,0,0,1,8.35,1.39Zm44.86-1.41a24.06,24.06,0,0,1-4.89,8.18,23.65,23.65,0,0,1-7.73,5.59A24.28,24.28,0,0,1,302.85,128a23.55,23.55,0,0,1-9.87-2.06c-.59-.28-1.16-.58-1.72-.9l31.68-38.07a26.49,26.49,0,0,1,2.55,5,28.39,28.39,0,0,1,1.84,10.17A29.36,29.36,0,0,1,325.64,112.12Z" transform="translate(-85.48 -30.51)"/><path class="cls-1" d="M334.55,73l7.28-8.74L330,54.37l-7.93,9.54c-.66-.31-1.32-.61-2-.89a44.09,44.09,0,0,0-17.21-3.29,43.41,43.41,0,0,0-17.21,3.36A42.93,42.93,0,0,0,272,72.19a42.19,42.19,0,0,0-9,13.47,41.76,41.76,0,0,0,5.67,42.42l-6.17,7.42,11.83,9.84,6-7.18a43,43,0,0,0,5.18,2.56,46,46,0,0,0,34.34-.07,42,42,0,0,0,22.72-22.49,41,41,0,0,0,3.28-16.37A41.67,41.67,0,0,0,334.55,73Zm-53.77,40.57c-.25-.54-.5-1.08-.72-1.64a27.61,27.61,0,0,1-1.84-10.1,29.35,29.35,0,0,1,1.68-10,24.34,24.34,0,0,1,4.9-8.18,23.58,23.58,0,0,1,17.74-7.65,24.51,24.51,0,0,1,8.35,1.39Zm44.86-1.41a24.06,24.06,0,0,1-4.89,8.18,23.65,23.65,0,0,1-7.73,5.59A24.28,24.28,0,0,1,302.85,128a23.55,23.55,0,0,1-9.87-2.06c-.59-.28-1.16-.58-1.72-.9l31.68-38.07a26.49,26.49,0,0,1,2.55,5,28.39,28.39,0,0,1,1.84,10.17A29.36,29.36,0,0,1,325.64,112.12Z" transform="translate(-85.48 -30.51)"/><path class="cls-1" d="M334.55,73l7.28-8.74L330,54.37l-7.93,9.54c-.66-.31-1.32-.61-2-.89a44.09,44.09,0,0,0-17.21-3.29,43.41,43.41,0,0,0-17.21,3.36A42.93,42.93,0,0,0,272,72.19a42.19,42.19,0,0,0-9,13.47,41.76,41.76,0,0,0,5.67,42.42l-6.17,7.42,11.83,9.84,6-7.18a43,43,0,0,0,5.18,2.56,46,46,0,0,0,34.34-.07,42,42,0,0,0,22.72-22.49,41,41,0,0,0,3.28-16.37A41.67,41.67,0,0,0,334.55,73Zm-53.77,40.57c-.25-.54-.5-1.08-.72-1.64a27.61,27.61,0,0,1-1.84-10.1,29.35,29.35,0,0,1,1.68-10,24.34,24.34,0,0,1,4.9-8.18,23.58,23.58,0,0,1,17.74-7.65,24.51,24.51,0,0,1,8.35,1.39Zm44.86-1.41a24.06,24.06,0,0,1-4.89,8.18,23.65,23.65,0,0,1-7.73,5.59A24.28,24.28,0,0,1,302.85,128a23.55,23.55,0,0,1-9.87-2.06c-.59-.28-1.16-.58-1.72-.9l31.68-38.07a26.49,26.49,0,0,1,2.55,5,28.39,28.39,0,0,1,1.84,10.17A29.36,29.36,0,0,1,325.64,112.12Z" transform="translate(-85.48 -30.51)"/><rect class="cls-1" x="280.24" width="18.51" height="111.67"/><rect class="cls-1" x="280.24" width="18.51" height="111.67"/><rect class="cls-1" x="280.24" width="18.51" height="111.67"/></svg>